# xmcd CD database file
#
# Track frame offsets:
#	150
#	18046
#	39233
#	62333
#	77140
#	95852
#	104477
#	107777
#	121746
#	137496
#	160619
#	180217
#	200167
#
# Disc length: 3056 seconds
#
# Revision: 1
# Processed by: cddbd v1.5.2PL0 Copyright (c) Steve Scherf et al.
# Submitted via: Aktiv CD Ripper 
#
DISCID=9b0bee0d
DTITLE=The Loafing Heroes - Unterwegs
DYEAR=2009
DGENRE=Country
TTITLE0=King Of The Vagabonds
TTITLE1=We Are The Gods
TTITLE2=Sunshine
TTITLE3=The Ones We Love
TTITLE4=Nature Boy
TTITLE5=Mein Weib
TTITLE6=Interlude
TTITLE7=Anna Karina
TTITLE8=Welcome To Vancouver
TTITLE9=Shining Stars
TTITLE10=Faraway Love
TTITLE11=Trascience
TTITLE12=I Don't Care
EXTD=YEAR: 2009
EXTT0=
EXTT1=
EXTT2=
EXTT3=
EXTT4=
EXTT5=
EXTT6=
EXTT7=
EXTT8=
EXTT9=
EXTT10=
EXTT11=
EXTT12=
PLAYORDER=
